Coordinates
version=1
nRows=9
nColumns=24
inDegrees=yes

Units are S.I. units (second, meters, Newtons, ...)
Angles are in degrees.

endheader
time	pelvis_tilt	pelvis_list	pelvis_rotation	pelvis_tx	pelvis_ty	pelvis_tz	hip_flexion_r	hip_adduction_r	hip_rotation_r	knee_angle_r	ankle_angle_r	subtalar_angle_r	mtp_angle_r	hip_flexion_l	hip_adduction_l	hip_rotation_l	knee_angle_l	ankle_angle_l	subtalar_angle_l	mtp_angle_l	lumbar_extension	lumbar_bending	lumbar_rotation
      1.38000000	     14.50021369	     -2.90163622	     -0.34483312	     -0.06589068	      0.94021126	      0.27326149	    -23.13750269	      6.87667602	      2.40671201	     -4.95311999	     20.64809980	      3.01938728	     16.45173155	     15.83165926	     -4.05695753	     -8.20144732	    -37.81703168	     18.87769878	      2.14679609	     37.98637694	    -31.00781535	      5.35630363	      8.51303823
      1.38500000	     14.76372263	     -2.64554813	     -0.65116771	     -0.05960046	      0.94013107	      0.27339867	    -23.93137222	      6.46036923	      2.52310957	     -4.80959697	     20.90334135	      3.21928927	     16.37457413	     15.12545280	     -3.71010780	     -8.70041104	    -35.11536991	     18.32396770	      2.59060787	     38.10117961	    -31.30590351	      4.92222865	      8.64819186
      1.39000000	     15.05243404	     -2.44896829	     -0.83653058	     -0.05331397	      0.93988450	      0.27340773	    -24.73199171	      6.14365155	      2.51695525	     -4.70765227	     21.20808923	      3.50935215	     16.31681090	     14.41401516	     -3.39601891	     -9.05978379	    -32.43104434	     17.73933266	      3.01264661	     38.31915361	    -31.62346546	      4.60165881	      8.72511591
      1.39500000	     15.34160915	     -2.19309502	     -1.13759651	     -0.04690333	      0.93967577	      0.27359963	    -25.52142660	      5.72431004	      2.62283762	     -4.65028330	     21.42863349	      3.75596019	     16.09880334	     13.59237468	     -3.02736000	     -9.55071564	    -29.62086678	     17.00698079	      3.48948630	     38.58261247	    -31.93142925	      4.15325262	      8.83624306
      1.40000000	     15.50400447	     -2.07365823	     -1.26565913	     -0.04062593	      0.93918248	      0.27332525	    -26.15770631	      5.50201136	      2.56442845	     -4.60486620	     21.63752910	      4.05630297	     15.94339958	     13.03017946	     -2.73782811	     -9.77315338	    -27.00923083	     16.16923904	      3.89562831	     38.78503133	    -32.10212898	      3.95876731	      8.93604557
      1.40500000	     15.65245851	     -1.96385424	     -1.33051284	     -0.03419703	      0.93866498	      0.27310057	    -26.75848685	      5.31997114	      2.34976251	     -4.61451426	     21.93614848	      4.41783771	     15.82391091	     12.46045800	     -2.46320515	     -9.99855668	    -24.38812467	     15.23637120	      4.23273300	     39.03774390	    -32.24214433	      3.79412971	      8.99982310
      1.41000000	     15.78076882	     -1.86704317	     -1.39208662	     -0.02770277	      0.93797275	      0.27279728	    -27.36724164	      5.14931184	      2.14109351	     -4.56436187	     22.21554230	      4.80402873	     15.81096524	     11.92007472	     -2.20528916	    -10.21542847	    -21.83609974	     14.38624984	      4.67382398	     39.31780893	    -32.35986135	      3.65011631	      9.06054060
      1.41500000	     15.88885445	     -1.84637234	     -1.47424506	     -0.02133881	      0.93726509	      0.27256061	    -27.91344718	      5.05984944	      2.01634817	     -4.58720921	     22.45551362	      5.01091565	     15.77913360	     11.38956832	     -2.02076899	    -10.38147814	    -19.32336349	     13.40580437	      4.85430087	     39.72344703	    -32.46868954	      3.56437628	      9.15785221
      1.42000000	     15.88363235	     -1.82167166	     -1.61229037	     -0.01482530	      0.93638498	      0.27248896	    -28.36066999	      4.93738870	      2.01283963	     -4.58098463	     22.73284867	      5.19640363	     15.79395224	     11.01350906	     -1.86789203	    -10.68480728	    -16.95307740	     12.50065297	      5.06063865	     41.34684730	    -32.44209519	      3.44981531	      9.29108695
